grf
version=1
nRows=12
nColumns=37
inDegrees=no
endheader
time	ground_force_1_vx	ground_force_1_vy	ground_force_1_vz	ground_force_1_px	ground_force_1_py	ground_force_1_pz	ground_moment_1_mx	ground_moment_1_my	ground_moment_1_mz	ground_force_2_vx	ground_force_2_vy	ground_force_2_vz	ground_force_2_px	ground_force_2_py	ground_force_2_pz	ground_moment_2_mx	ground_moment_2_my	ground_moment_2_mz	ground_force_3_vx	ground_force_3_vy	ground_force_3_vz	ground_force_3_px	ground_force_3_py	ground_force_3_pz	ground_moment_3_mx	ground_moment_3_my	ground_moment_3_mz	ground_force_4_vx	ground_force_4_vy	ground_force_4_vz	ground_force_4_px	ground_force_4_py	ground_force_4_pz	ground_moment_4_mx	ground_moment_4_my	ground_moment_4_mz
      0.00000000	      0.00000000	     -0.00000000	      0.00000000	      0.00000000	      0.00000000	      0.00000000	      0.00000000	      0.00000000	      0.00000000	     -3.69939208	     49.12754440	   -569.96630859	   -334.73097625	  -1075.34387655	      0.00000000	     -0.00000000	      0.00000000	   4119.37909955	     11.88724418	    -11.40193185	    -42.46313477	   -267.43456551	   -716.01296216	      0.00000000	      0.00000000	      0.00000000	   1198.18493742	      0.00000000	     -0.00000000	      0.00000000	      0.00000000	      0.00000000	      0.00000000	      0.00000000	      0.00000000	      0.00000000
      0.01000000	      0.00000000	     -0.00000000	      0.00000000	      0.00000000	      0.00000000	      0.00000000	      0.00000000	      0.00000000	      0.00000000	     -3.15538168	     48.87644577	   -572.66802979	   -335.71209281	  -1075.49900960	      0.00000000	      0.00000000	      0.00000000	   4063.96504400	     11.70484065	    -11.04021175	    -38.02457047	   -260.06560346	   -708.91308189	      0.00000000	      0.00000000	      0.00000000	   1452.97697883	      0.00000000	     -0.00000000	      0.00000000	      0.00000000	      0.00000000	      0.00000000	      0.00000000	      0.00000000	      0.00000000
      0.02000000	      0.00000000	     -0.00000000	      0.00000000	      0.00000000	      0.00000000	      0.00000000	      0.00000000	      0.00000000	      0.00000000	     -2.84659624	     48.69773102	   -576.96716309	   -336.49341132	  -1075.80485432	      0.00000000	      0.00000000	      0.00000000	   4019.38867750	     12.58867070	    -11.22507873	    -36.15767670	   -259.57918635	   -718.18405172	      0.00000000	      0.00000000	      0.00000000	   1225.66514370	      0.00000000	     -0.00000000	      0.00000000	      0.00000000	      0.00000000	      0.00000000	      0.00000000	      0.00000000	      0.00000000
      0.03000000	      0.00000000	     -0.00000000	      0.00000000	      0.00000000	      0.00000000	      0.00000000	      0.00000000	      0.00000000	      0.00000000	     -2.53091812	     49.61355972	   -583.06829834	   -337.66879211	  -1076.06616535	      0.00000000	      0.00000000	      0.00000000	   4082.32079193	     12.62860970	    -10.43007198	    -34.37718964	   -263.73705657	   -720.62498067	      0.00000000	      0.00000000	      0.00000000	    868.97137990	      0.00000000	     -0.00000000	      0.00000000	      0.00000000	      0.00000000	      0.00000000	      0.00000000	      0.00000000	      0.00000000
      0.04000000	      0.00000000	     -0.00000000	      0.00000000	      0.00000000	      0.00000000	      0.00000000	      0.00000000	      0.00000000	      0.00000000	     -1.97842538	     50.10706711	   -589.81054688	   -338.23454300	  -1076.16431720	      0.00000000	      0.00000000	      0.00000000	   4300.45758310	     12.02457341	     -9.90001307	    -34.72580338	   -258.97261413	   -707.56041453	      0.00000000	      0.00000000	      0.00000000	    783.16612719	      0.00000000	     -0.00000000	      0.00000000	      0.00000000	      0.00000000	      0.00000000	      0.00000000	      0.00000000	      0.00000000
      0.05000000	      0.00000000	     -0.00000000	      0.00000000	      0.00000000	      0.00000000	      0.00000000	      0.00000000	      0.00000000	      0.00000000	     -2.39308476	     50.18041992	   -593.91156006	   -339.01775822	  -1075.96994126	      0.00000000	     -0.00000000	      0.00000000	   4318.67814713	     11.77476898	     -9.21857078	    -33.26293564	   -260.30969324	   -724.96915681	      0.00000000	      0.00000000	      0.00000000	    453.94595280	      0.00000000	     -0.00000000	      0.00000000	      0.00000000	      0.00000000	      0.00000000	      0.00000000	      0.00000000	      0.00000000
      0.06000000	      0.00000000	     -0.00000000	      0.00000000	      0.00000000	      0.00000000	      0.00000000	      0.00000000	      0.00000000	      0.00000000	     -2.75015330	     50.60303116	   -598.22601318	   -338.81705992	  -1075.69555382	      0.00000000	     -0.00000000	      0.00000000	   4747.86974187	     12.13775947	     -7.95672761	    -33.04646301	   -257.01697455	   -721.20164126	      0.00000000	      0.00000000	      0.00000000	    273.60772585	      0.00000000	     -0.00000000	      0.00000000	      0.00000000	      0.00000000	      0.00000000	      0.00000000	      0.00000000	      0.00000000
      0.07000000	      0.00000000	     -0.00000000	      0.00000000	      0.00000000	      0.00000000	      0.00000000	      0.00000000	      0.00000000	      0.00000000	     -3.14508581	     49.80876541	   -598.87322998	   -338.33805489	  -1076.36075163	      0.00000000	      0.00000000	      0.00000000	   4659.52568505	     12.94407786	     -6.72011155	    -30.72534180	   -263.85472978	   -731.56941461	      0.00000000	      0.00000000	     -0.00000000	   -128.63923393	      0.00000000	     -0.00000000	      0.00000000	      0.00000000	      0.00000000	      0.00000000	      0.00000000	      0.00000000	      0.00000000
      0.08000000	      0.00000000	     -0.00000000	      0.00000000	      0.00000000	      0.00000000	      0.00000000	      0.00000000	      0.00000000	      0.00000000	     -3.36767030	     49.71989059	   -593.37176514	   -338.01998950	  -1075.42732115	      0.00000000	      0.00000000	      0.00000000	   4934.11257428	     13.04805228	     -5.79909677	    -30.05682182	   -257.99254928	   -733.36017728	      0.00000000	      0.00000000	     -0.00000000	    -49.70412199	      0.00000000	     -0.00000000	      0.00000000	      0.00000000	      0.00000000	      0.00000000	      0.00000000	      0.00000000	      0.00000000
      0.09000000	      0.00000000	     -0.00000000	      0.00000000	      0.00000000	      0.00000000	      0.00000000	      0.00000000	      0.00000000	      0.00000000	     -3.59786415	     49.02172089	   -589.22070312	   -336.88371160	  -1076.00809796	      0.00000000	      0.00000000	      0.00000000	   4785.08572020	     13.10036903	     -4.87259932	    -30.95664597	   -266.79138474	   -719.94799984	      0.00000000	      0.00000000	     -0.00000000	   -118.12811278	      0.00000000	     -0.00000000	      0.00000000	      0.00000000	      0.00000000	      0.00000000	      0.00000000	      0.00000000	      0.00000000
      0.10000000	      0.00000000	     -0.00000000	      0.00000000	      0.00000000	      0.00000000	      0.00000000	      0.00000000	      0.00000000	      0.00000000	     -3.31525040	     48.39058685	   -586.60321045	   -336.57218533	  -1077.31846214	      0.00000000	      0.00000000	      0.00000000	   5038.31144930	     13.83888208	     -4.23944213	    -29.82437325	   -264.49735507	   -724.19494814	      0.00000000	      0.00000000	     -0.00000000	   -285.69785936	      0.00000000	     -0.00000000	      0.00000000	      0.00000000	      0.00000000	      0.00000000	      0.00000000	      0.00000000	      0.00000000
      0.11000000	      0.00000000	     -0.00000000	      0.00000000	      0.00000000	      0.00000000	      0.00000000	      0.00000000	      0.00000000	      0.00000000	     -3.52902913	     48.29445648	   -583.83459473	   -336.14946894	  -1076.12465718	      0.00000000	      0.00000000	      0.00000000	   5170.58592087	     14.35666058	     -2.95067293	    -29.38574982	   -259.52005758	   -729.97826324	      0.00000000	      0.00000000	     -0.00000000	   -286.16793176	      0.00000000	     -0.00000000	      0.00000000	      0.00000000	      0.00000000	      0.00000000	      0.00000000	      0.00000000	      0.00000000
